PathFileType	4	(X/Y/Z)	Patient4_TMGait_0pt5_01_left_26.trc.trc
DataRate	CameraRate	NumFrames	NumMarkers	Units	OrigDataRate	OrigDataStartFrame	OrigNumFrames
77.777777777778	77.777777777778	5	33	mm	77.777777777778	36	       141
Frame#	Time	L.ASIS			Sacral			L.Shoulder			Chest			R.Shoulder			Neck			R.ASIS			R.Thigh.Superior			R.Thigh.Lateral			R.Thigh.Inferior			R.Patella			L.Thigh.Superior			L.Thigh.Lateral			L.Thigh.Inferior			L.Patella			L.Shank.Superior			L.Shank.Lateral			L.Shank.Inferior			R.Shank.Superior			R.Shank.Lateral			R.Shank.Inferior			R.Heel			R.Midfoot.Superior			R.Midfoot.Lateral			R.Toe			L.Heel			L.Midfoot.Lateral			L.Midfoot.Superior			L.Toe			L.Elbow			L.Wrist			R.Elbow			R.Wrist			
		X1	Y1	Z1	X2	Y2	Z2	X3	Y3	Z3	X4	Y4	Z4	X5	Y5	Z5	X6	Y6	Z6	X7	Y7	Z7	X8	Y8	Z8	X9	Y9	Z9	X10	Y10	Z10	X11	Y11	Z11	X12	Y12	Z12	X13	Y13	Z13	X14	Y14	Z14	X15	Y15	Z15	X16	Y16	Z16	X17	Y17	Z17	X18	Y18	Z18	X19	Y19	Z19	X20	Y20	Z20	X21	Y21	Z21	X22	Y22	Z22	X23	Y23	Z23	X24	Y24	Z24	X25	Y25	Z25	X26	Y26	Z26	X27	Y27	Z27	X28	Y28	Z28	X29	Y29	Z29	X30	Y30	Z30	X31	Y31	Z31	X32	Y32	Z32	X33	Y33	Z33	

36	35.220000000000	827.625032757265	950.542547614757	319.104993181845	626.818713497272	996.762224283069	495.104455648757	761.356094177714	1417.260678396195	284.146881393269	888.685598987794	1356.410268302652	430.881299424959	828.665306246974	1439.036591862659	611.314738749502	782.984895585690	1485.114747142284	430.038680039471	861.303877611844	931.323261036259	592.217605193398	873.390110522869	717.775951399099	564.704668486384	781.577110382783	616.466311588752	628.159466217895	846.385175432375	553.162003593782	546.392972173195	830.117064625069	451.014965852999	557.580570877451	907.556856344965	764.732162056220	356.737837461316	845.727240016578	636.695908450405	290.000211251081	943.815839650685	573.721604510297	353.039340429244	957.107018698079	500.635621680811	358.026491858386	934.026799695941	425.347328820909	348.320779279012	851.733783850845	306.268398629143	295.917951152625	913.303749364615	197.606054406574	362.565717751314	765.648180153626	378.367437732296	564.503472862694	661.011548098035	312.043263729279	630.999003206319	659.258184520387	207.752852328551	571.858306332852	471.024698976642	90.354837388906	552.717500949365	650.556257768819	103.320682189389	582.771475515636	552.180375148050	63.591401895493	624.576641005837	754.130402758246	35.811152099663	610.156151541173	794.470864748381	37.693205931444	402.119560340718	867.150202622152	35.377598801870	319.873910054732	949.530888026029	97.748510347538	345.108758094890	1077.559018415170	49.337510503531	314.862408162994	661.394596028350	1070.511527017023	195.612924239979	699.280960197405	811.094820540451	194.094137542551	953.224568551118	1121.719305155703	725.012563934989	1171.272460544216	1148.691916427902	602.723076219854	
37	35.232857142857	828.826216261465	951.457025226119	317.213765534957	626.925286775050	997.574304328442	491.983228218881	763.141390306077	1417.575330983573	280.941823775327	889.496534913704	1357.030500876848	428.614375033788	828.463738773190	1440.311577159993	608.403628311465	783.899755912048	1485.808197861082	426.661785892393	861.082899414089	932.100371392577	590.486968646395	876.859875534731	719.252059675735	563.214295173640	787.014853525194	616.537745946731	626.520533519522	853.910239638829	553.815814803186	545.442883823470	838.687234093437	450.191847367021	557.949474946052	907.578086889336	764.262897339794	353.870658728674	843.945890872527	636.635270747395	288.430296466359	941.534260884740	572.925638783636	351.360761595711	954.192164049136	499.977392489645	356.996046474055	930.639484383880	424.715641801174	347.442837310834	847.600263370153	306.141127433150	295.127637708205	907.915596788103	197.209739494375	362.338638760541	771.803132936683	378.529771050214	564.277950846909	664.635087189160	315.817072063117	630.080982108363	660.537699716006	211.119104364064	571.838981873351	468.825908079033	100.713329981746	552.250446571762	648.489256897919	105.231831716156	582.686692259617	548.392592172149	70.141639701777	624.136102653839	748.072179241358	35.114184081142	609.949366251380	788.000227098479	37.656543329211	402.058363359912	860.676683067196	35.352218978788	319.798109624074	943.073214345292	97.663568009131	345.129767337334	1071.142714470649	49.264397577326	314.823292933433	666.947232897609	1069.679903584200	191.346496174673	709.475648727621	811.008284268922	189.246917679956	946.828611839854	1120.542373793221	723.656807467429	1166.837039655205	1137.181906162962	602.582327944194	
38	35.245714285714	829.933043806867	952.361589970267	315.353178934001	626.955450526600	998.328839066702	488.843295515601	764.971830962383	1417.967831715480	277.904120753195	890.246185528961	1357.674635408445	426.571984867621	828.053964874720	1441.481531061372	605.723386935650	784.723797456633	1486.502864798060	423.508064931256	860.782912851170	932.816936948879	588.734613524902	880.596064370680	720.928016079303	561.724210382834	792.860494415034	616.756698509811	624.975847743206	861.912671758568	554.721474952146	544.630557701480	847.715266417401	449.696489374920	558.382431982082	907.288997755176	763.621907496702	350.812235201924	841.786382033773	636.530253855536	286.715896368976	938.858707944714	572.063414335546	349.510786068602	950.861260514637	499.267292230773	355.705116202280	926.875863535751	424.060742656742	346.359545198310	843.142081856431	305.910471821426	294.259386726546	902.371836806051	196.795365302790	361.999354949138	778.552835488189	378.965212421845	564.121172619936	668.920602526660	319.985299075792	629.145980855998	662.439291881382	214.966923724465	571.794462219151	467.447676175474	112.112542034981	551.605678627020	646.856809793767	107.609889583301	582.533124142993	545.099930304521	77.580956181838	623.572578305011	742.047836028215	34.339666685717	609.778177587847	781.498866633993	37.613624698674	401.998950238739	854.169223851397	35.289011167067	319.718252030932	936.605864496057	97.529775816362	345.110803671440	1064.713408111496	49.060959930316	314.772838962481	672.612779278663	1069.038349923792	187.018150111106	720.088479242718	811.221480253647	184.359265087318	939.815663295746	1119.187638207319	722.367267655059	1161.681041872434	1124.721104681518	603.050324759879	
39	35.258571428571	830.926089604517	953.234325577992	313.503473799955	626.913370411028	998.997330146441	485.718853028201	766.817548139803	1418.421234991548	275.070730001465	890.931362281342	1358.311823128284	424.767033832015	827.465594250119	1442.501358819323	603.306667705846	785.459551055052	1487.179718129778	420.621382756173	860.404023087543	933.451538433435	586.945652381482	884.524716294075	722.799521955725	560.202204452834	799.028511626369	617.148118445712	623.513072958244	870.253105534359	555.905980366451	543.914606491515	857.076188994577	449.562864559505	558.803690447436	906.733247006744	762.868370343029	347.666915446413	839.373718078589	636.413109059088	284.884895103512	935.892846250162	571.170591346381	347.545552479963	947.211256226145	498.523692770233	354.210244410979	922.830880463090	423.394024312770	345.117051101456	838.459833648030	305.602784446952	293.310721392676	896.727026772245	196.372017887059	361.567506156609	785.788287927524	379.699013990099	563.979000885746	673.798411997404	324.516090576380	628.171465870888	664.907209500917	219.276886424509	571.679923391842	466.931846832937	124.403292686370	550.746531991875	645.657365753697	110.535341351811	582.316364200541	542.359922127081	85.876366271662	622.872103816176	736.127976692764	33.510420343911	609.688563712688	774.989237036409	37.572876403674	401.936674467291	847.650074907736	35.202691358593	319.630556366785	930.149403401268	97.359897700172	345.054758036208	1058.286972795928	48.749823894830	314.707578893291	678.431551790127	1068.566076737046	182.640189467767	731.087139299975	811.717349661291	179.449791697364	932.215652663662	1117.625707428964	721.152839617546	1155.725442673976	1111.346049104566	604.183638509682	
40	35.271428571429	831.793999122416	954.062842734908	311.647275628386	626.801498421099	999.569973233460	482.637118832132	768.645124489598	1418.930100721094	272.473407044377	891.548173277916	1358.923672877749	423.204297622780	826.734228607852	1443.341825987468	601.177174758730	786.116569711786	1487.831803224669	418.037668666292	859.939534296519	934.003848573923	585.110958485722	888.555613054337	724.867444798749	558.624623414345	805.415398950726	617.741130372863	622.115268411262	878.781110059868	557.399030044373	543.248687828386	866.648742619852	449.823072457038	559.140962035537	905.964487808709	762.058271838984	344.531567775637	836.810761858486	636.306234894537	282.981980854543	932.727202405954	570.271986129520	345.528655358854	943.330674571233	497.763911907900	352.590419854736	918.588485376943	422.728273893755	343.776754259937	833.635479070288	305.249322503822	292.302097055963	891.024054666869	195.950158449080	361.071748151340	793.396817637296	380.752220886195	563.797238361563	679.191555980572	329.365350273361	627.136026897913	667.889496914839	224.007899326158	571.453994138517	467.307924586276	137.364020293839	549.637281464766	644.908849233763	114.052649337937	582.043696431147	540.239892142639	94.933794167038	622.023840458124	730.424882118795	32.684328452981	609.729183759804	768.486683182560	37.539825769749	401.868461409100	841.135193563928	35.107576617726	319.534336188876	923.714319864482	97.169778348067	344.968754418700	1051.871904361614	48.365190050260	314.626823397435	684.446741730673	1068.249672613795	178.231854838637	742.448619619439	812.488080951874	174.539913816032	924.065649711847	1115.847830852945	720.020675412070	1148.890509073529	1097.093856578158	606.025827677492	
